<svg xmlns="http://www.w3.org/2000/svg" viewBox="0 0 980 190" width="980" height="190" font-family="system-ui,-apple-system,Segoe UI,Roboto,sans-serif" role="img" aria-label="Agent safety: containment">
<rect x="0" y="0" width="980" height="190" rx="16" fill="#0f172a"/>
<rect x="1" y="1" width="978" height="188" rx="15" fill="none" stroke="#1e293b" stroke-width="2"/>
<text x="24" y="34" fill="#f1f5f9" font-size="20" font-weight="700">Agent safety: containment</text>
<text x="24" y="55" fill="#94a3b8" font-size="13">assume breach; minimize blast radius</text>
<defs><marker id="a" viewBox="0 0 10 10" refX="8" refY="5" markerWidth="7" markerHeight="7" orient="auto-start-reverse"><path d="M0 0 L10 5 L0 10 z" fill="#94a3b8"/></marker></defs>
<rect x="24.0" y="98" width="172.0" height="62" rx="10" fill="#4a90d9"/>
<text x="110.0" y="134.0" fill="#fff" font-size="12.5" font-weight="600" text-anchor="middle">Injection attempt</text>
<rect x="214.0" y="98" width="172.0" height="62" rx="10" fill="#2e8b57"/>
<text x="300.0" y="134.0" fill="#fff" font-size="12.5" font-weight="600" text-anchor="middle">Least privilege</text>
<rect x="404.0" y="98" width="172.0" height="62" rx="10" fill="#8e44ad"/>
<text x="490.0" y="134.0" fill="#fff" font-size="12.5" font-weight="600" text-anchor="middle">Sandbox</text>
<rect x="594.0" y="98" width="172.0" height="62" rx="10" fill="#e67e22"/>
<text x="680.0" y="134.0" fill="#fff" font-size="12.5" font-weight="600" text-anchor="middle">Approval gate</text>
<rect x="784.0" y="98" width="172.0" height="62" rx="10" fill="#0e7490"/>
<text x="870.0" y="134.0" fill="#fff" font-size="12.5" font-weight="600" text-anchor="middle">Rate limit + audit</text>
<line x1="199.0" y1="129.0" x2="211.0" y2="129.0" stroke="#94a3b8" stroke-width="2.2" marker-end="url(#a)"/>
<line x1="389.0" y1="129.0" x2="401.0" y2="129.0" stroke="#94a3b8" stroke-width="2.2" marker-end="url(#a)"/>
<line x1="579.0" y1="129.0" x2="591.0" y2="129.0" stroke="#94a3b8" stroke-width="2.2" marker-end="url(#a)"/>
<line x1="769.0" y1="129.0" x2="781.0" y2="129.0" stroke="#94a3b8" stroke-width="2.2" marker-end="url(#a)"/>
</svg>