<svg xmlns="http://www.w3.org/2000/svg" viewBox="0 0 980 190" width="980" height="190" font-family="system-ui,-apple-system,Segoe UI,Roboto,sans-serif" role="img" aria-label="Model Context Protocol">
<rect x="0" y="0" width="980" height="190" rx="16" fill="#0f172a"/>
<rect x="1" y="1" width="978" height="188" rx="15" fill="none" stroke="#1e293b" stroke-width="2"/>
<text x="24" y="34" fill="#f1f5f9" font-size="20" font-weight="700">Model Context Protocol</text>
<text x="24" y="55" fill="#94a3b8" font-size="13">USB-C for AI: M x N -&gt; M + N</text>
<defs><marker id="a" viewBox="0 0 10 10" refX="8" refY="5" markerWidth="7" markerHeight="7" orient="auto-start-reverse"><path d="M0 0 L10 5 L0 10 z" fill="#94a3b8"/></marker></defs>
<rect x="24.0" y="98" width="219.5" height="62" rx="10" fill="#4a90d9"/>
<text x="133.8" y="134.0" fill="#fff" font-size="12.5" font-weight="600" text-anchor="middle">Host (client)</text>
<rect x="261.5" y="98" width="219.5" height="62" rx="10" fill="#2e8b57"/>
<text x="371.2" y="134.0" fill="#fff" font-size="12.5" font-weight="600" text-anchor="middle">JSON-RPC</text>
<rect x="499.0" y="98" width="219.5" height="62" rx="10" fill="#8e44ad"/>
<text x="608.8" y="134.0" fill="#fff" font-size="12.5" font-weight="600" text-anchor="middle">MCP Server</text>
<rect x="736.5" y="98" width="219.5" height="62" rx="10" fill="#e67e22"/>
<text x="846.2" y="134.0" fill="#fff" font-size="12.5" font-weight="600" text-anchor="middle">Resources / Tools / Prompts</text>
<line x1="246.5" y1="129.0" x2="258.5" y2="129.0" stroke="#94a3b8" stroke-width="2.2" marker-end="url(#a)"/>
<line x1="484.0" y1="129.0" x2="496.0" y2="129.0" stroke="#94a3b8" stroke-width="2.2" marker-end="url(#a)"/>
<line x1="721.5" y1="129.0" x2="733.5" y2="129.0" stroke="#94a3b8" stroke-width="2.2" marker-end="url(#a)"/>
</svg>