<svg xmlns="http://www.w3.org/2000/svg" viewBox="0 0 980 190" width="980" height="190" font-family="system-ui,-apple-system,Segoe UI,Roboto,sans-serif" role="img" aria-label="Experiment tracking">
<rect x="0" y="0" width="980" height="190" rx="16" fill="#0f172a"/>
<rect x="1" y="1" width="978" height="188" rx="15" fill="none" stroke="#1e293b" stroke-width="2"/>
<text x="24" y="34" fill="#f1f5f9" font-size="20" font-weight="700">Experiment tracking</text>
<text x="24" y="55" fill="#94a3b8" font-size="13">track everything; reproduce the best run</text>
<defs><marker id="a" viewBox="0 0 10 10" refX="8" refY="5" markerWidth="7" markerHeight="7" orient="auto-start-reverse"><path d="M0 0 L10 5 L0 10 z" fill="#94a3b8"/></marker></defs>
<rect x="24.0" y="98" width="142.0" height="62" rx="10" fill="#4a90d9"/>
<text x="95.0" y="134.0" fill="#fff" font-size="12" font-weight="600" text-anchor="middle">Experiment</text>
<rect x="182.0" y="98" width="142.0" height="62" rx="10" fill="#2e8b57"/>
<text x="253.0" y="134.0" fill="#fff" font-size="12" font-weight="600" text-anchor="middle">Run</text>
<rect x="340.0" y="98" width="142.0" height="62" rx="10" fill="#8e44ad"/>
<text x="411.0" y="134.0" fill="#fff" font-size="12" font-weight="600" text-anchor="middle">Params + metrics</text>
<rect x="498.0" y="98" width="142.0" height="62" rx="10" fill="#e67e22"/>
<text x="569.0" y="134.0" fill="#fff" font-size="12" font-weight="600" text-anchor="middle">Artifacts</text>
<rect x="656.0" y="98" width="142.0" height="62" rx="10" fill="#0e7490"/>
<text x="727.0" y="134.0" fill="#fff" font-size="12" font-weight="600" text-anchor="middle">Compare</text>
<rect x="814.0" y="98" width="142.0" height="62" rx="10" fill="#c0392b"/>
<text x="885.0" y="134.0" fill="#fff" font-size="12" font-weight="600" text-anchor="middle">Winner</text>
<line x1="169.0" y1="129.0" x2="179.0" y2="129.0" stroke="#94a3b8" stroke-width="2.2" marker-end="url(#a)"/>
<line x1="327.0" y1="129.0" x2="337.0" y2="129.0" stroke="#94a3b8" stroke-width="2.2" marker-end="url(#a)"/>
<line x1="485.0" y1="129.0" x2="495.0" y2="129.0" stroke="#94a3b8" stroke-width="2.2" marker-end="url(#a)"/>
<line x1="643.0" y1="129.0" x2="653.0" y2="129.0" stroke="#94a3b8" stroke-width="2.2" marker-end="url(#a)"/>
<line x1="801.0" y1="129.0" x2="811.0" y2="129.0" stroke="#94a3b8" stroke-width="2.2" marker-end="url(#a)"/>
</svg>