<svg xmlns="http://www.w3.org/2000/svg" viewBox="0 0 980 214" width="980" height="214" font-family="system-ui,-apple-system,Segoe UI,Roboto,sans-serif" role="img" aria-label="MLOps &amp; LLMOps">
<rect x="0" y="0" width="980" height="214" rx="16" fill="#0f172a"/>
<rect x="1" y="1" width="978" height="212" rx="15" fill="none" stroke="#1e293b" stroke-width="2"/>
<text x="24" y="34" fill="#f1f5f9" font-size="21" font-weight="700">MLOps &amp; LLMOps</text>
<text x="24" y="55" fill="#94a3b8" font-size="13">operate AI systems: version, deploy, observe, improve</text>
<defs><marker id="a" viewBox="0 0 10 10" refX="8" refY="5" markerWidth="7" markerHeight="7" orient="auto-start-reverse"><path d="M0 0 L10 5 L0 10 z" fill="#94a3b8"/></marker></defs>
<rect x="24.0" y="98" width="119.4" height="62" rx="10" fill="#4a90d9"/>
<text x="83.7" y="127.0" fill="#fff" font-size="12" font-weight="600" text-anchor="middle">Data +</text>
<text x="83.7" y="141.0" fill="#fff" font-size="12" font-weight="600" text-anchor="middle">versioning</text>
<rect x="159.4" y="98" width="119.4" height="62" rx="10" fill="#2e8b57"/>
<text x="219.1" y="134.0" fill="#fff" font-size="12" font-weight="600" text-anchor="middle">Train + track</text>
<rect x="294.9" y="98" width="119.4" height="62" rx="10" fill="#8e44ad"/>
<text x="354.6" y="134.0" fill="#fff" font-size="12" font-weight="600" text-anchor="middle">Registry</text>
<rect x="430.3" y="98" width="119.4" height="62" rx="10" fill="#e67e22"/>
<text x="490.0" y="134.0" fill="#fff" font-size="12" font-weight="600" text-anchor="middle">CI/CD</text>
<rect x="565.7" y="98" width="119.4" height="62" rx="10" fill="#0e7490"/>
<text x="625.4" y="134.0" fill="#fff" font-size="12" font-weight="600" text-anchor="middle">Deploy</text>
<rect x="701.1" y="98" width="119.4" height="62" rx="10" fill="#c0392b"/>
<text x="760.9" y="127.0" fill="#fff" font-size="12" font-weight="600" text-anchor="middle">Observe +</text>
<text x="760.9" y="141.0" fill="#fff" font-size="12" font-weight="600" text-anchor="middle">evaluate</text>
<rect x="836.6" y="98" width="119.4" height="62" rx="10" fill="#b45309"/>
<text x="896.3" y="134.0" fill="#fff" font-size="12" font-weight="600" text-anchor="middle">Monitor drift</text>
<line x1="146.4" y1="129.0" x2="156.4" y2="129.0" stroke="#94a3b8" stroke-width="2.2" marker-end="url(#a)"/>
<line x1="281.9" y1="129.0" x2="291.9" y2="129.0" stroke="#94a3b8" stroke-width="2.2" marker-end="url(#a)"/>
<line x1="417.3" y1="129.0" x2="427.3" y2="129.0" stroke="#94a3b8" stroke-width="2.2" marker-end="url(#a)"/>
<line x1="552.7" y1="129.0" x2="562.7" y2="129.0" stroke="#94a3b8" stroke-width="2.2" marker-end="url(#a)"/>
<line x1="688.1" y1="129.0" x2="698.1" y2="129.0" stroke="#94a3b8" stroke-width="2.2" marker-end="url(#a)"/>
<line x1="823.6" y1="129.0" x2="833.6" y2="129.0" stroke="#94a3b8" stroke-width="2.2" marker-end="url(#a)"/>
<path d="M 896.3 160 V 190 H 83.7 V 160" fill="none" stroke="#e67e22" stroke-width="2.2" stroke-dasharray="5 4" marker-end="url(#a)"/>
<text x="490.0" y="206" fill="#e67e22" font-size="12" text-anchor="middle">monitor → drift → retrain (continuous)</text>
</svg>