<svg xmlns="http://www.w3.org/2000/svg" viewBox="0 0 980 214" width="980" height="214" font-family="system-ui,-apple-system,Segoe UI,Roboto,sans-serif" role="img" aria-label="Distributed systems for AI">
<rect x="0" y="0" width="980" height="214" rx="16" fill="#0f172a"/>
<rect x="1" y="1" width="978" height="212" rx="15" fill="none" stroke="#1e293b" stroke-width="2"/>
<text x="24" y="34" fill="#f1f5f9" font-size="20" font-weight="700">Distributed systems for AI</text>
<text x="24" y="55" fill="#94a3b8" font-size="13">decouple with queues, scale with workers</text>
<defs><marker id="a" viewBox="0 0 10 10" refX="8" refY="5" markerWidth="7" markerHeight="7" orient="auto-start-reverse"><path d="M0 0 L10 5 L0 10 z" fill="#94a3b8"/></marker></defs>
<rect x="24.0" y="98" width="173.6" height="62" rx="10" fill="#4a90d9"/>
<text x="110.8" y="134.0" fill="#fff" font-size="12" font-weight="600" text-anchor="middle">Producer</text>
<rect x="213.6" y="98" width="173.6" height="62" rx="10" fill="#2e8b57"/>
<text x="300.4" y="134.0" fill="#fff" font-size="12" font-weight="600" text-anchor="middle">Message queue</text>
<rect x="403.2" y="98" width="173.6" height="62" rx="10" fill="#8e44ad"/>
<text x="490.0" y="134.0" fill="#fff" font-size="12" font-weight="600" text-anchor="middle">Workers</text>
<rect x="592.8" y="98" width="173.6" height="62" rx="10" fill="#e67e22"/>
<text x="679.6" y="134.0" fill="#fff" font-size="12" font-weight="600" text-anchor="middle">Aggregate</text>
<rect x="782.4" y="98" width="173.6" height="62" rx="10" fill="#0e7490"/>
<text x="869.2" y="134.0" fill="#fff" font-size="12" font-weight="600" text-anchor="middle">Result</text>
<line x1="197.6" y1="129.0" x2="213.6" y2="129.0" stroke="#94a3b8" stroke-width="2.2" marker-end="url(#a)"/>
<line x1="387.2" y1="129.0" x2="403.2" y2="129.0" stroke="#94a3b8" stroke-width="2.2" marker-end="url(#a)"/>
<line x1="576.8" y1="129.0" x2="592.8" y2="129.0" stroke="#94a3b8" stroke-width="2.2" marker-end="url(#a)"/>
<line x1="766.4" y1="129.0" x2="782.4" y2="129.0" stroke="#94a3b8" stroke-width="2.2" marker-end="url(#a)"/>
</svg>