<svg xmlns="http://www.w3.org/2000/svg" viewBox="0 0 980 190" width="980" height="190" font-family="system-ui,-apple-system,Segoe UI,Roboto,sans-serif" role="img" aria-label="Prompt engineering">
<rect x="0" y="0" width="980" height="190" rx="16" fill="#0f172a"/>
<rect x="1" y="1" width="978" height="188" rx="15" fill="none" stroke="#1e293b" stroke-width="2"/>
<text x="24" y="34" fill="#f1f5f9" font-size="21" font-weight="700">Prompt engineering</text>
<text x="24" y="55" fill="#94a3b8" font-size="13">A prompt is a spec for a probabilistic machine</text>
<defs><marker id="a" viewBox="0 0 10 10" refX="8" refY="5" markerWidth="7" markerHeight="7" orient="auto-start-reverse"><path d="M0 0 L10 5 L0 10 z" fill="#94a3b8"/></marker></defs>
<rect x="24.0" y="98" width="170.4" height="62" rx="10" fill="#4a90d9"/>
<text x="109.2" y="134.0" fill="#ffffff" font-size="13.5" font-weight="600" text-anchor="middle">Understand the model</text>
<rect x="214.4" y="98" width="170.4" height="62" rx="10" fill="#2e8b57"/>
<text x="299.6" y="134.0" fill="#ffffff" font-size="13.5" font-weight="600" text-anchor="middle">Design instructions</text>
<rect x="404.8" y="98" width="170.4" height="62" rx="10" fill="#8e44ad"/>
<text x="490.0" y="134.0" fill="#ffffff" font-size="13.5" font-weight="600" text-anchor="middle">Control context</text>
<rect x="595.2" y="98" width="170.4" height="62" rx="10" fill="#e67e22"/>
<text x="680.4" y="134.0" fill="#ffffff" font-size="13.5" font-weight="600" text-anchor="middle">Define output</text>
<rect x="785.6" y="98" width="170.4" height="62" rx="10" fill="#0e7490"/>
<text x="870.8" y="134.0" fill="#ffffff" font-size="13.5" font-weight="600" text-anchor="middle">Evaluate results</text>
<line x1="197.4" y1="129.0" x2="211.4" y2="129.0" stroke="#94a3b8" stroke-width="2.2" marker-end="url(#a)"/>
<line x1="387.8" y1="129.0" x2="401.8" y2="129.0" stroke="#94a3b8" stroke-width="2.2" marker-end="url(#a)"/>
<line x1="578.2" y1="129.0" x2="592.2" y2="129.0" stroke="#94a3b8" stroke-width="2.2" marker-end="url(#a)"/>
<line x1="768.6" y1="129.0" x2="782.6" y2="129.0" stroke="#94a3b8" stroke-width="2.2" marker-end="url(#a)"/>
</svg>