<svg xmlns="http://www.w3.org/2000/svg" viewBox="0 0 980 190" width="980" height="190" font-family="system-ui,-apple-system,Segoe UI,Roboto,sans-serif" role="img" aria-label="Fine-Tuning &amp; Alignment">
<rect x="0" y="0" width="980" height="190" rx="16" fill="#0f172a"/>
<rect x="1" y="1" width="978" height="188" rx="15" fill="none" stroke="#1e293b" stroke-width="2"/>
<text x="24" y="34" fill="#f1f5f9" font-size="21" font-weight="700">Fine-Tuning &amp; Alignment</text>
<text x="24" y="55" fill="#94a3b8" font-size="13">adapt a model&#x27;s behavior, not its knowledge</text>
<defs><marker id="a" viewBox="0 0 10 10" refX="8" refY="5" markerWidth="7" markerHeight="7" orient="auto-start-reverse"><path d="M0 0 L10 5 L0 10 z" fill="#94a3b8"/></marker></defs>
<rect x="24.0" y="98" width="117.7" height="62" rx="10" fill="#4a90d9"/>
<text x="82.9" y="134.0" fill="#fff" font-size="12.5" font-weight="600" text-anchor="middle">Base model</text>
<rect x="159.7" y="98" width="117.7" height="62" rx="10" fill="#2e8b57"/>
<text x="218.6" y="134.0" fill="#fff" font-size="12.5" font-weight="600" text-anchor="middle">Task &amp; data</text>
<rect x="295.4" y="98" width="117.7" height="62" rx="10" fill="#8e44ad"/>
<text x="354.3" y="134.0" fill="#fff" font-size="12.5" font-weight="600" text-anchor="middle">SFT</text>
<rect x="431.1" y="98" width="117.7" height="62" rx="10" fill="#e67e22"/>
<text x="490.0" y="134.0" fill="#fff" font-size="12.5" font-weight="600" text-anchor="middle">LoRA / QLoRA</text>
<rect x="566.9" y="98" width="117.7" height="62" rx="10" fill="#0e7490"/>
<text x="625.7" y="134.0" fill="#fff" font-size="12.5" font-weight="600" text-anchor="middle">Align (DPO)</text>
<rect x="702.6" y="98" width="117.7" height="62" rx="10" fill="#c0392b"/>
<text x="761.4" y="134.0" fill="#fff" font-size="12.5" font-weight="600" text-anchor="middle">Evaluate</text>
<rect x="838.3" y="98" width="117.7" height="62" rx="10" fill="#b45309"/>
<text x="897.1" y="134.0" fill="#fff" font-size="12.5" font-weight="600" text-anchor="middle">Deploy</text>
<line x1="144.7" y1="129.0" x2="156.7" y2="129.0" stroke="#94a3b8" stroke-width="2.2" marker-end="url(#a)"/>
<line x1="280.4" y1="129.0" x2="292.4" y2="129.0" stroke="#94a3b8" stroke-width="2.2" marker-end="url(#a)"/>
<line x1="416.1" y1="129.0" x2="428.1" y2="129.0" stroke="#94a3b8" stroke-width="2.2" marker-end="url(#a)"/>
<line x1="551.9" y1="129.0" x2="563.9" y2="129.0" stroke="#94a3b8" stroke-width="2.2" marker-end="url(#a)"/>
<line x1="687.6" y1="129.0" x2="699.6" y2="129.0" stroke="#94a3b8" stroke-width="2.2" marker-end="url(#a)"/>
<line x1="823.3" y1="129.0" x2="835.3" y2="129.0" stroke="#94a3b8" stroke-width="2.2" marker-end="url(#a)"/>
</svg>